<?xml version="1.0" encoding="UTF-8"?><svg id="a" xmlns="http://www.w3.org/2000/svg" viewBox="0 0 273.96 34.23"><path d="M0,33.52V.65H21.12V5.82H5.98V14.48h14.23v5.17H5.98v8.66h15.14v5.22H0Z"/><path d="M26.77,33.52l11.6-16.36L26.72,.65h7.34l8.31,11.85L49.56,.65h7.24l-11.09,16.41,12.21,16.46h-7.5l-8.66-11.7-7.75,11.7h-7.24Z"/><path d="M64.32,33.52V.65h21.12V5.82h-15.14V14.48h14.23v5.17h-14.23v8.66h15.14v5.22h-21.12Z"/><path d="M94.08,33.52V.65h12.16c3.93,0,6.95,.92,9.05,2.76s3.15,4.28,3.15,7.32-1.05,5.4-3.15,7.23c-2.1,1.83-5.12,2.75-9.05,2.75h-6.18v12.81h-5.98Zm5.98-16.81h5.57c2.19,0,3.86-.5,4.99-1.51,1.13-1,1.7-2.31,1.7-3.91s-.52-2.96-1.54-3.96-2.54-1.51-4.53-1.51h-6.18v10.89h-.01Zm11.8,16.81l-8.71-15.4h6.38l10.13,15.4h-7.8Z"/><path d="M138.63,34.23c-2.89,0-5.4-.69-7.53-2.06-2.14-1.38-3.79-3.35-4.98-5.91s-1.77-5.65-1.77-9.24,.61-6.83,1.84-9.36c1.22-2.52,2.91-4.43,5.06-5.72S135.86,0,138.63,0C142.46,0,145.45,.93,147.61,2.79c2.15,1.86,3.53,4.27,4.14,7.24l-6.38,1.17c-.52-1.72-1.36-3.11-2.51-4.18-1.15-1.06-2.56-1.6-4.23-1.6-1.47,0-2.79,.43-3.98,1.28s-2.12,2.14-2.82,3.86c-.7,1.72-1.05,3.88-1.05,6.46,0,2.43,.31,4.52,.92,6.28s1.51,3.11,2.67,4.05c1.17,.95,2.58,1.42,4.25,1.42,2.14,0,3.8-.57,4.98-1.71,1.17-1.14,1.76-2.6,1.76-4.37h6.38c0,2.45-.53,4.53-1.58,6.24-1.06,1.71-2.56,3.03-4.52,3.94-1.96,.91-4.3,1.36-7.01,1.36Z"/><path d="M158.76,33.52V.65h5.98V33.52h-5.98Z"/><path d="M185.63,34.23c-2.28,0-4.38-.4-6.29-1.19-1.92-.79-3.47-2-4.66-3.62s-1.83-3.68-1.91-6.18h5.88c0,1.27,.31,2.3,.94,3.11,.62,.81,1.46,1.41,2.52,1.81s2.22,.59,3.48,.59,2.3-.16,3.25-.48,1.71-.78,2.25-1.38c.55-.6,.82-1.31,.82-2.14,0-1.1-.33-1.96-1-2.58-.67-.62-1.73-1.2-3.2-1.72l-6.48-2.58c-2.53-1-4.47-2.15-5.83-3.47s-2.03-3.13-2.03-5.44c0-2.67,1.05-4.83,3.17-6.48C178.65,.83,181.6,0,185.38,0s6.52,.86,8.53,2.57,3.15,4.1,3.42,7.15h-5.88c-.22-1.3-.81-2.34-1.77-3.13-.96-.78-2.4-1.18-4.3-1.18-1.69,0-3.02,.35-4,1.05-.98,.7-1.47,1.58-1.47,2.65,0,.91,.31,1.63,.92,2.17,.62,.53,1.57,1.04,2.87,1.53l7.19,2.79c2.43,.95,4.3,2.14,5.6,3.57,1.3,1.44,1.95,3.23,1.95,5.39,0,1.98-.5,3.68-1.49,5.13-1,1.44-2.45,2.56-4.36,3.36-1.91,.79-4.23,1.18-6.96,1.18Z"/><path d="M206.42,33.52V.65h21.12V5.82h-15.14V14.48h14.23v5.17h-14.23v8.66h15.14v5.22h-21.12Z"/><path d="M260.34,34.23c-2.7,0-5.08-.62-7.13-1.87-2.05-1.25-3.66-3.14-4.81-5.67-1.16-2.53-1.73-5.72-1.73-9.57s.58-7.07,1.73-9.6c1.16-2.53,2.76-4.42,4.81-5.66s4.43-1.86,7.13-1.86,5.03,.62,7.08,1.86,3.66,3.13,4.81,5.66c1.16,2.53,1.73,5.73,1.73,9.6s-.58,7.04-1.73,9.57c-1.16,2.53-2.76,4.42-4.81,5.67-2.06,1.25-4.42,1.87-7.08,1.87Zm0-5.47c2.36,0,4.2-1,5.5-3s1.95-4.88,1.95-8.65-.65-6.66-1.95-8.67c-1.3-2.02-3.13-3.03-5.5-3.03s-4.22,1.01-5.53,3.03c-1.31,2.02-1.96,4.91-1.96,8.67s.65,6.65,1.96,8.65c1.3,2,3.15,3,5.53,3Z"/></svg>